<svg width="273" height="91" viewBox="0 0 273 91" fill="none" xmlns="http://www.w3.org/2000/svg">
<g clip-path="url(#clip0_191_1001)">
<path d="M237.588 88.9364V88.4462H245.357C245.847 88.4462 246.08 88.3171 246.08 87.9559V44.3007H212.139V87.9559C212.139 88.3171 212.371 88.4462 212.99 88.4462H222.721V88.9364H187.309V88.4462H196.342C196.962 88.4462 197.194 88.3171 197.194 87.9559V3.71579C197.194 3.35458 196.962 3.22557 196.342 3.22557H187.309V2.73535H222.721V3.22557H212.99C212.371 3.22557 212.139 3.35458 212.139 3.71579V43.8363H246.08V3.71579C246.08 3.35458 245.847 3.22557 245.357 3.22557H237.588V2.73535H273.026V3.22557H261.902C261.411 3.22557 261.179 3.35458 261.179 3.71579V87.9559C261.179 88.3171 261.411 88.4462 261.902 88.4462H273.026V88.9364H237.588Z" fill="#111111"/>
<path d="M177.345 88.9357V88.4455H186.637C187.128 88.4455 187.257 88.2133 187.257 87.9553L176.7 58.7744H148.128L139.042 83.3111C137.442 87.7231 137.313 88.4713 138.061 88.4713H145.701V88.9615H128.047V88.4713H135.48C136.59 88.4713 136.823 88.1101 138.552 83.3111L168.983 0.283605C169.112 -0.077608 169.473 -0.077608 169.602 0.283605L203.595 87.9811C203.724 88.2133 204.085 88.4713 204.576 88.4713H212.783V88.9615H177.345V88.9357ZM162.478 19.5311L148.257 58.2842H176.468L162.478 19.5311Z" fill="#111111"/>
<path d="M75.4196 88.9357V88.4455H84.7114C85.2018 88.4455 85.3309 88.2133 85.3309 87.9553L74.7743 58.7744H46.2018L37.1165 83.3111C35.5162 87.7231 35.3871 88.4713 36.1357 88.4713H43.7756V88.9615H26.1211V88.4713H33.5546C34.6644 88.4713 34.8967 88.1101 36.6261 83.3111L67.0569 0.283605C67.186 -0.077608 67.5473 -0.077608 67.6763 0.283605L101.669 87.9811C101.798 88.2133 102.159 88.4713 102.65 88.4713H110.858V88.9615H75.4196V88.9357ZM60.5526 19.5311L46.3309 58.2842H74.542L60.5526 19.5311Z" fill="#111111"/>
<path d="M159.409 91.0004C149.188 91.0004 139.819 84.8082 139.819 67.4184V59.5233C139.819 48.8159 131.921 44.3265 120.719 44.3265H110.266V87.9817C110.266 88.3429 110.498 88.4719 111.117 88.4719H123.868V88.9622H83.6289V88.4719H94.5726C95.0631 88.4719 95.2953 88.3429 95.2953 87.9817V3.71579C95.2953 3.35457 95.0631 3.22557 94.5726 3.22557H86.5455V2.73535H121.803C140.283 2.73535 151.485 11.9721 151.485 23.8921C151.485 35.8122 140.412 44.0685 124.978 44.0685C146.504 44.0685 155.383 54.2857 155.383 67.6506V78.5902C155.383 84.7824 158.17 89.891 162.919 89.891C166.197 89.891 169.011 88.1881 170.714 86.3563C170.947 86.2273 171.205 86.5885 170.947 86.7175C168.391 89.2718 164.752 90.9746 159.383 90.9746L159.409 91.0004ZM118.654 3.22557H111.117C110.498 3.22557 110.266 3.35457 110.266 3.71579V43.8363H120.719C132.773 43.8363 136.412 39.8371 136.412 24.3824C136.412 8.92758 130.32 3.22557 118.654 3.22557Z" fill="#111111"/>
<path d="M64.3719 89.0135H0V88.5233H7.71741C8.20781 88.5233 8.44011 88.3943 8.44011 88.0331V3.79294C8.44011 3.43172 8.20781 3.30272 7.71741 3.30272H0V2.8125H35.4381V3.30272H24.2621C23.7717 3.30272 23.5394 3.43172 23.5394 3.79294V88.0331C23.5394 88.3943 23.7717 88.5233 24.2621 88.5233H38.3805C62.7717 88.5233 64.2945 63.8576 64.2945 63.8576H64.7849V88.6523C64.7849 88.8845 64.6559 89.0135 64.4236 89.0135H64.3719Z" fill="#111111"/>
</g>
<defs>
<clipPath id="clip0_191_1001">
<rect width="273" height="91" fill="white"/>
</clipPath>
</defs>
</svg>
